<?xml version="1.0" encoding="UTF-8" standalone="no"?><!DOCTYPE svg PUBLIC "-//W3C//DTD SVG 1.1//EN" "http://www.w3.org/Graphics/SVG/1.1/DTD/svg11.dtd"><svg width="100%" height="100%" viewBox="0 0 1334 2134" version="1.1" xmlns="http://www.w3.org/2000/svg" xmlns:xlink="http://www.w3.org/1999/xlink" xml:space="preserve" xmlns:serif="http://www.serif.com/" style="fill-rule:evenodd;clip-rule:evenodd;stroke-linejoin:round;stroke-miterlimit:2;"><path d="M800,0c73.75,0 133.333,59.708 133.333,133.333l0,144.417c128.75,21.583 246.667,73.875 346.667,148.917c59.167,44.166 70.833,127.916 26.667,186.666c-47.917,59.167 -127.917,70.834 -186.667,26.667c-89.167,-67.083 -199.583,-106.667 -320,-106.667c-294.583,0 -533.333,238.75 -533.333,533.334c-0,294.583 238.75,533.333 533.333,533.333c120.417,0 230.833,-39.583 320,-106.667c58.75,-44.166 138.75,-32.5 186.667,26.667c44.166,58.75 32.5,138.75 -26.667,186.667c-100,75 -217.917,127.5 -346.667,148.75l0,144.583c0,73.75 -59.583,133.333 -133.333,133.333c-73.75,0 -133.333,-59.583 -133.333,-133.333l-0,-144.583c-378.375,-63.334 -666.667,-392.5 -666.667,-788.75c0,-396.25 288.292,-725.459 666.667,-788.917l-0,-144.417c-0,-73.625 59.583,-133.33 133.333,-133.33l0,-0.003Z" style="fill:#fff;fill-rule:nonzero;"/></svg>