<?xml version="1.0" encoding="UTF-8" standalone="no"?><!DOCTYPE svg PUBLIC "-//W3C//DTD SVG 1.1//EN" "http://www.w3.org/Graphics/SVG/1.1/DTD/svg11.dtd"><svg width="100%" height="100%" viewBox="0 0 3000 3000" version="1.1" xmlns="http://www.w3.org/2000/svg" xmlns:xlink="http://www.w3.org/1999/xlink" xml:space="preserve" xmlns:serif="http://www.serif.com/" style="fill-rule:evenodd;clip-rule:evenodd;stroke-linejoin:round;stroke-miterlimit:2;"><rect id="Artboard1" x="0" y="0" width="3000" height="3000" style="fill:none;"/><path d="M1692.42,2735.25l26.055,147.768l-1.051,0.164c-31.645,4.931 -63.454,8.795 -95.363,11.557c-31.961,2.766 -64.012,4.424 -96.087,5.021l-0.977,0.018l0,-150.027l0.206,-0.004c27.966,-0.565 55.912,-2.033 83.78,-4.445c27.839,-2.409 55.592,-5.759 83.208,-10.017l0.229,-0.035Zm-384.617,0.035c27.616,4.258 55.369,7.608 83.208,10.017c27.868,2.412 55.814,3.88 83.78,4.445l0.206,0.004l0,150.027c-65.688,-1.152 -130.279,-6.838 -193.478,-16.76l26.055,-147.768l0.229,0.035Zm596.223,-52.133l51.321,141.005l-0.438,0.151c-30.547,10.491 -61.448,19.938 -92.649,28.285c-31.126,8.328 -62.54,15.558 -94.166,21.714l-0.371,0.072l-26.055,-147.768l0.57,-0.112c31.685,-6.246 63.128,-13.701 94.234,-22.387c22.21,-6.203 44.237,-13.04 66.072,-20.454l1.482,-0.506Zm-808.058,0c52.631,17.99 106.839,32.565 162.358,43.459l-26.055,147.768c-64.224,-12.46 -126.887,-29.315 -187.624,-50.222l51.321,-141.005Zm-199.22,-88.298c48.84,26.988 99.673,50.804 152.243,71.176l-51.321,141.005l-0.853,-0.329c-29.817,-11.516 -59.242,-24.036 -88.201,-37.566c-29.453,-13.761 -58.414,-28.561 -86.84,-44.333l-0.042,-0.024l75.014,-129.929Zm1206.5,0l75.014,129.929c-56.368,31.309 -115.123,58.839 -175.936,82.252l-51.321,-141.005l0.042,-0.017c26.01,-10.103 51.69,-21.041 76.971,-32.853c25.157,-11.753 49.904,-24.365 74.23,-37.754l1,-0.552Zm180.8,-121.571l96.419,114.908c-50.23,40.706 -103.332,78.007 -158.935,111.538l-75.014,-129.928l1.446,-0.878c23.583,-14.36 46.708,-29.463 69.303,-45.333c22.546,-15.835 44.552,-32.426 66.021,-49.694l0.76,-0.613Zm-1568.1,0c43.54,35.13 89.483,67.4 137.53,96.518l-75.014,129.928c-55.602,-33.535 -108.689,-70.826 -158.935,-111.538l96.419,-114.908Zm1725.17,-150.955l114.908,96.419l-0.355,0.407c-21.168,24.269 -43.149,47.826 -65.921,70.598c-22.772,22.772 -46.329,44.753 -70.598,65.921l-0.407,0.355l-96.419,-114.908c42.188,-36.897 81.876,-76.584 118.792,-118.792Zm-1882.25,-0c36.897,42.188 76.584,81.876 118.792,118.792l-96.419,114.908l-0.407,-0.355c-24.269,-21.168 -47.826,-43.149 -70.598,-65.921c-22.772,-22.772 -44.753,-46.329 -65.921,-70.598l-0.355,-0.407l114.908,-96.419Zm2010.93,-175.812l129.928,75.014c-33.535,55.602 -70.826,108.689 -111.538,158.935l-114.908,-96.419c35.13,-43.54 67.4,-89.483 96.518,-137.53Zm-2138.73,1.446c14.36,23.583 29.463,46.708 45.333,69.303c15.835,22.546 32.426,44.552 49.694,66.021l0.613,0.76l-114.908,96.419c-40.706,-50.23 -78.007,-103.332 -111.538,-158.935l129.928,-75.014l0.878,1.446Zm-97.09,-196.917c10.103,26.01 21.041,51.69 32.853,76.971c11.753,25.157 24.365,49.904 37.754,74.23l0.552,1l-129.929,75.014c-31.309,-56.368 -58.839,-115.123 -82.252,-175.936l141.005,-51.321l0.017,0.042Zm2332.05,-0.042l141.005,51.321l-0.329,0.853c-11.516,29.817 -24.036,59.242 -37.566,88.201c-13.761,29.453 -28.561,58.414 -44.333,86.84l-0.024,0.042l-129.929,-75.014c26.988,-48.84 50.804,-99.673 71.176,-152.243Zm-2392.53,-208.765c6.246,31.685 13.701,63.128 22.387,94.234c6.203,22.21 13.04,44.237 20.454,66.072l0.506,1.482l-141.005,51.321l-0.151,-0.438c-10.491,-30.547 -19.938,-61.448 -28.285,-92.649c-8.328,-31.126 -15.558,-62.54 -21.714,-94.166l-0.072,-0.371l147.768,-26.055l0.112,0.57Zm2453.12,-0.57l147.768,26.055c-12.46,64.224 -29.315,126.887 -50.222,187.624l-141.005,-51.321c17.99,-52.631 32.565,-106.839 43.459,-162.358Zm-2476.36,-216.465c0.565,27.966 2.033,55.912 4.445,83.78c2.409,27.839 5.759,55.592 10.017,83.208l0.035,0.229l-147.768,26.055l-0.164,-1.051c-4.931,-31.645 -8.795,-63.454 -11.557,-95.363c-2.766,-31.961 -4.424,-64.012 -5.021,-96.087l-0.018,-0.977l150.027,0l0.004,0.206Zm2649.53,-0.206c-1.152,65.688 -6.838,130.279 -16.76,193.478l-147.768,-26.055l0.035,-0.229c4.258,-27.616 7.608,-55.369 10.017,-83.208c2.412,-27.868 3.88,-55.814 4.445,-83.78l0.004,-0.206l150.027,0Zm-16.596,-242.427c4.931,31.645 8.795,63.454 11.557,95.363c2.766,31.961 4.424,64.012 5.021,96.087l0.018,0.977l-150.027,0l-0.004,-0.206c-0.565,-27.966 -2.033,-55.912 -4.445,-83.78c-2.409,-27.839 -5.759,-55.592 -10.017,-83.208l-0.035,-0.229l147.768,-26.055l0.164,1.051Zm-2766.21,-1.051l147.768,26.055l-0.035,0.229c-4.258,27.616 -7.608,55.369 -10.017,83.208c-2.412,27.868 -3.88,55.814 -4.445,83.78l-0.004,0.206l-150.027,0c1.152,-65.688 6.838,-130.279 16.76,-193.478Zm2707.33,-236.434c10.491,30.547 19.938,61.448 28.285,92.649c8.328,31.126 15.558,62.54 21.714,94.166l0.072,0.371l-147.768,26.055l-0.112,-0.57c-6.246,-31.685 -13.701,-63.128 -22.387,-94.234c-6.203,-22.21 -13.04,-44.237 -20.454,-66.072l-0.506,-1.482l141.005,-51.321l0.151,0.438Zm-2648.47,-0.438l141.005,51.321c-17.99,52.631 -32.565,106.839 -43.459,162.358l-147.768,-26.055c12.46,-64.224 29.315,-126.887 50.222,-187.624Zm2548.95,-222.913c31.309,56.368 58.839,115.123 82.252,175.936l-141.005,51.321l-0.017,-0.042c-10.103,-26.01 -21.041,-51.69 -32.853,-76.971c-11.753,-25.157 -24.365,-49.904 -37.754,-74.23l-0.552,-1l129.929,-75.014Zm-2449.57,-0l129.929,75.014c-26.988,48.84 -50.804,99.673 -71.176,152.243l-141.005,-51.321l0.329,-0.853c11.516,-29.817 24.036,-59.242 37.566,-88.201c13.761,-29.453 28.561,-58.414 44.333,-86.84l0.024,-0.042Zm2312.98,-202.205c40.706,50.23 78.007,103.332 111.538,158.935l-129.928,75.014l-0.878,-1.446c-14.36,-23.583 -29.463,-46.708 -45.333,-69.303c-15.835,-22.546 -32.426,-44.552 -49.694,-66.021l-0.613,-0.76l114.908,-96.419Zm-2176.39,-0l114.908,96.419c-35.13,43.54 -67.4,89.483 -96.518,137.53l-129.928,-75.014c33.535,-55.602 70.826,-108.689 111.538,-158.935Zm169.444,-175.563l96.419,114.908c-42.188,36.897 -81.876,76.584 -118.792,118.792l-114.908,-96.419l0.355,-0.407c21.168,-24.269 43.149,-47.826 65.921,-70.598c22.772,-22.772 46.329,-44.753 70.598,-65.921l0.407,-0.355Zm1837.91,0.355c24.269,21.168 47.826,43.149 70.598,65.921c22.772,22.772 44.753,46.329 65.921,70.598l0.355,0.407l-114.908,96.419c-36.897,-42.188 -76.584,-81.876 -118.792,-118.792l96.419,-114.908l0.407,0.355Zm-1640.69,-144.056l75.014,129.928l-1.446,0.878c-23.583,14.36 -46.708,29.463 -69.303,45.333c-22.546,15.835 -44.552,32.426 -66.021,49.694l-0.76,0.613l-96.419,-114.908c50.23,-40.706 103.332,-78.007 158.935,-111.538Zm1443.07,-0c55.602,33.535 108.689,70.826 158.935,111.538l-96.419,114.908c-43.54,-35.13 -89.483,-67.4 -137.53,-96.518l75.014,-129.928Zm-1223.86,-107.306l51.321,141.005l-0.042,0.017c-26.01,10.103 -51.69,21.041 -76.971,32.853c-25.157,11.753 -49.904,24.365 -74.23,37.754l-1,0.552l-75.014,-129.929c56.368,-31.309 115.123,-58.839 175.936,-82.252Zm1005.51,0.329c29.817,11.516 59.242,24.036 88.201,37.566c29.453,13.761 58.414,28.561 86.84,44.333l0.042,0.024l-75.014,129.929c-48.84,-26.988 -99.673,-50.804 -152.243,-71.176l51.321,-141.005l0.853,0.329Zm-770.906,-67.673l26.055,147.768l-0.57,0.112c-31.685,6.246 -63.128,13.701 -94.234,22.387c-22.21,6.203 -44.237,13.04 -66.072,20.454l-1.482,0.506l-51.321,-141.005l0.438,-0.151c30.547,-10.491 61.448,-19.938 92.649,-28.285c31.126,-8.328 62.54,-15.558 94.166,-21.714l0.371,-0.072Zm535.452,0c64.224,12.46 126.887,29.315 187.624,50.222l-51.321,141.005c-52.631,-17.99 -106.839,-32.565 -162.358,-43.459l26.055,-147.768Zm-292.726,-25.399l0,150.027l-0.206,0.004c-27.966,0.565 -55.912,2.033 -83.78,4.445c-27.839,2.409 -55.592,5.759 -83.208,10.017l-0.229,0.035l-26.055,-147.768l1.051,-0.164c31.645,-4.931 63.454,-8.795 95.363,-11.557c31.961,-2.766 64.012,-4.424 96.087,-5.021l0.977,-0.018Zm50,0c65.688,1.152 130.279,6.838 193.478,16.76l-26.055,147.768l-0.229,-0.035c-27.616,-4.258 -55.369,-7.608 -83.208,-10.017c-27.868,-2.412 -55.814,-3.88 -83.78,-4.445l-0.206,-0.004l0,-150.027Z" style="fill:#fff;"/><text x="606.6px" y="1913.4px" style="font-family:'BypassCollege-Regular', 'Bypass College';font-size:1200px;fill:#fff;">.05</text></svg>