<?xml version="1.0" encoding="UTF-8" standalone="no"?><!DOCTYPE svg PUBLIC "-//W3C//DTD SVG 1.1//EN" "http://www.w3.org/Graphics/SVG/1.1/DTD/svg11.dtd"><svg width="100%" height="100%" viewBox="0 0 2134 2134" version="1.1" xmlns="http://www.w3.org/2000/svg" xmlns:xlink="http://www.w3.org/1999/xlink" xml:space="preserve" xmlns:serif="http://www.serif.com/" style="fill-rule:evenodd;clip-rule:evenodd;stroke-linejoin:round;stroke-miterlimit:2;"><path d="M2133.33,333.333c0,75.042 -59.583,144.167 -160,200c-121.25,67.084 -301.666,114.584 -509.583,128.75c-15,-7.083 -30.833,-14.166 -46.667,-20.833c-164.583,-68.75 -382.916,-107.917 -617.083,-107.917c-34.583,0 -68.333,0.834 -102.083,2.5l-4.584,-2.5c-100.416,-55.833 -160,-124.958 -160,-200c0,-184.083 354.584,-333.333 800,-333.333c441.667,-0 800,149.25 800,333.333Zm-1463.75,337.917c42.5,-2.917 85.834,-4.583 130.417,-4.583c259.167,-0 489.167,51.25 635.417,130.833c103.333,56.25 164.583,126.25 164.583,202.5c-0,12.917 -2.917,32.917 -8.75,48.75c-19.167,55 -74.167,105.417 -145.833,148.333c-0.417,0 -1.25,0.417 -1.667,0.834c-1.25,0.833 -2.5,1.25 -3.75,2.083c-145.833,80.833 -378.333,133.333 -640,133.333c-248.333,0 -470.583,-47.083 -617.333,-121.25c-7.792,-4.166 -15.375,-11.666 -22.709,-12.083c-100.458,-55.833 -159.958,-125 -159.958,-200c-0,-145 222.625,-268.75 533.333,-314.167c43.75,-6.666 89.167,-11.666 136.25,-14.583Zm963.334,106.25c117.916,-18.333 225.833,-47.5 317.5,-85.417c67.916,-28.333 130.833,-63.333 182.916,-106.25l0,147.5c0,80.417 -68.75,154.584 -182.5,212.084c-61.25,30.833 -135,56.666 -218.333,76.666c0.417,-7.083 0.833,-14.583 0.833,-22.083c0,-91.25 -44.166,-166.25 -100.416,-222.5Zm-32.917,622.5c-0,75 -59.583,144.167 -160,200c-7.5,0.417 -15,7.917 -22.5,12.083c-147.083,74.167 -369.167,121.25 -617.5,121.25c-261.667,0 -494.083,-52.5 -640.042,-133.333c-100.458,-55.833 -159.957,-125 -159.957,-200l0,-147.5c51.874,42.917 115.082,77.917 183.041,106.25c164.625,68.75 382.791,107.917 616.958,107.917c234.167,-0 452.5,-39.167 617.083,-107.917c32.5,-13.333 63.75,-28.75 93.334,-45.417c25.416,-14.166 49.166,-30 71.666,-46.666c6.25,-4.584 12.084,-9.584 17.917,-14.167l-0,147.5Zm133.333,-241.25c75.417,-20.833 152.084,-39.583 217.084,-66.667c67.916,-28.333 130.833,-63.333 182.916,-106.25l0,147.5c0,43.75 -20.833,87.5 -62.083,128.75c-67.917,67.917 -187.5,123.75 -338.75,160c0.417,-7.083 0.833,-14.583 0.833,-22.083l0,-241.25Zm-933.333,707.917c234.167,-0 452.5,-39.167 617.083,-107.917c67.917,-28.333 130.834,-63.333 182.917,-106.25l-0,147.5c-0,184.167 -358.333,333.333 -800,333.333c-441.833,0 -799.999,-149.166 -799.999,-333.333l0,-147.5c51.874,42.917 115.082,77.917 183.041,106.25c164.625,68.75 382.791,107.917 616.958,107.917Z" style="fill:#fff;fill-rule:nonzero;"/></svg>