<?xml version="1.0" encoding="UTF-8" standalone="no"?><!DOCTYPE svg PUBLIC "-//W3C//DTD SVG 1.1//EN" "http://www.w3.org/Graphics/SVG/1.1/DTD/svg11.dtd"><svg width="100%" height="100%" viewBox="0 0 1334 2134" version="1.1" xmlns="http://www.w3.org/2000/svg" xmlns:xlink="http://www.w3.org/1999/xlink" xml:space="preserve" xmlns:serif="http://www.serif.com/" style="fill-rule:evenodd;clip-rule:evenodd;stroke-linejoin:round;stroke-miterlimit:2;"><path d="M666.667,0c73.75,0 133.333,59.708 133.333,133.333l0,148.667c6.667,0.875 12.917,1.833 19.583,2.792c44.167,6.583 175.834,27.791 230,41.5c67.5,18.083 114.584,90.791 96.25,162.041c-17.916,71.25 -90.416,114.584 -162.083,96.667c-38.75,-13.75 -156.667,-29.583 -203.333,-36.25c-133.75,-20 -248.334,-10 -327.084,20c-76.166,29.167 -107.791,70.417 -116.166,116.667c-8.084,44.583 -1.959,70 5.375,85.833c7.875,16.667 23.25,35.417 53.875,55.833c67.75,44.584 171.083,74.584 305.25,110.834l11.666,3.333c118.334,32.083 263.334,71.667 370.834,142.917c58.75,39.166 114.166,92.083 148.333,165.416c34.583,74.167 42.083,157.5 26.25,242.5c-29.167,162.084 -141.667,267.917 -273.75,322.917c-56.667,23.333 -119.167,38.333 -185,45.833l-0,139.167c-0,73.75 -59.583,133.333 -133.333,133.333c-73.75,0 -133.334,-59.583 -133.334,-133.333l0,-145.417c-1.666,0 -3.75,-4.166 -5.416,-0.833l-0.834,0c-101.25,-15.833 -268.458,-59.583 -381.25,-109.583c-67.291,-30 -97.583,-108.75 -67.666,-176.25c29.916,-67.084 108.708,-97.5 172.25,-67.5c90.833,38.75 234.166,76.666 317.083,89.583c133.333,20 242.917,8.333 317.083,-21.667c70.417,-28.75 102.5,-70.416 111.667,-120.416c7.917,-44.584 2.083,-70 -5.417,-85.834c-7.916,-16.666 -23.333,-35.416 -53.75,-55.833c-67.916,-44.583 -171.25,-74.583 -305.416,-110.833l-11.667,-3.334c-118.333,-32.083 -263.417,-71.666 -371,-142.916c-58.792,-39.167 -113.875,-92.084 -148.083,-165.417c-34.709,-74.167 -42.25,-157.5 -26.125,-246.25c29.5,-162.083 146.25,-265.458 283.375,-317.792c54.25,-20.708 113.083,-34.333 175.166,-41.666l0,-144.709c0,-73.625 59.584,-133.333 133.334,-133.333Z" style="fill:#fff;fill-rule:nonzero;"/></svg>