<?xml version="1.0" encoding="UTF-8" standalone="no"?><!DOCTYPE svg PUBLIC "-//W3C//DTD SVG 1.1//EN" "http://www.w3.org/Graphics/SVG/1.1/DTD/svg11.dtd"><svg width="100%" height="100%" viewBox="0 0 10000 8892" version="1.1" xmlns="http://www.w3.org/2000/svg" xmlns:xlink="http://www.w3.org/1999/xlink" xml:space="preserve" xmlns:serif="http://www.serif.com/" style="fill-rule:evenodd;clip-rule:evenodd;stroke-linejoin:round;stroke-miterlimit:2;"><rect id="Artboard2" x="0" y="0" width="10000" height="8891.67" style="fill:none;"/><clipPath id="_clip1"><rect x="0" y="0" width="10000" height="8891.67"/></clipPath><g clip-path="url(#_clip1)"><path d="M8888.9,1203.25c612.85,0 1111.11,497.396 1111.11,1111.11l-0,4444.46c-0,612.846 -498.263,1111.11 -1111.11,1111.11l-7777.79,0c-613.716,0 -1111.11,-498.266 -1111.11,-1111.11l-0,-4444.46c-0,-613.712 497.396,-1111.11 1111.11,-1111.11l7777.79,0Zm-6666.67,5555.54c0,-612.846 -497.395,-1111.11 -1111.11,-1111.11l0,1111.11l1111.11,-0Zm-1111.11,-3333.33c613.713,0 1111.11,-498.262 1111.11,-1111.11l-1111.11,-0l0,1111.11Zm7777.79,3333.33l-0,-1111.11c-612.846,0 -1111.11,498.267 -1111.11,1111.11l1111.11,-0Zm-0,-4444.46l-1111.11,0c0,612.85 498.263,1111.11 1111.11,1111.11l-0,-1111.11Zm-3888.89,3888.89c920.138,0 1666.67,-746.529 1666.67,-1666.67c-0,-935.766 -746.529,-1666.67 -1666.67,-1666.67c-935.762,-0 -1666.67,730.9 -1666.67,1666.67c-0,920.138 730.904,1666.67 1666.67,1666.67Z" style="fill:#fff;fill-rule:nonzero;"/><g><path d="M4225.26,4172.52l0,48.49c94.042,-0 177.799,0.367 251.269,1.102c73.47,0.735 127.838,1.102 163.104,1.102l242.452,237.528l0,516.795l-249.064,228.711c-67.593,-0 -141.063,-0.368 -220.411,-1.102c-79.348,-0.735 -151.349,-1.102 -216.003,-1.102l-502.538,-0l0,-478.293l654.621,0l0,-59.511l-654.621,0l0,-980.829l1188.02,-0l0,489.313l-656.825,-2.204Zm577.477,-81.553l0,-321.8l-1029.32,0l0,813.317l654.621,0c0,44.519 0.368,83.469 1.103,116.853c0.734,33.383 1.102,70.106 1.102,110.171l-656.826,-0l0,310.779l826.542,0l202.778,-184.663l0,-439.617l-189.553,-191.241l-467.272,-2.204l0,-213.799l656.825,2.204Zm-696.499,-44.082l0,297.555l110.206,0c42.613,0 86.695,0.368 132.246,1.102c45.552,0.735 90.369,1.102 134.451,1.102l119.022,0c17.633,14.694 32.695,29.388 45.185,44.083c12.49,14.694 24.612,29.02 36.367,42.98c11.756,13.959 23.511,27.918 35.266,41.878c11.755,13.959 26.449,27.551 44.082,40.776l0,403.352l-176.329,160.9c-133.716,0 -263.023,-0.367 -387.923,-1.102c-124.9,-0.734 -253.473,-1.102 -385.72,-1.102l0,-227.023l656.826,-0l-2.205,-310.78l-654.621,0l0,-729.561l949.972,0l0,238.044l-656.825,-2.204Z" style="fill:#fff;fill-rule:nonzero;"/><path d="M6305.94,3930.07l0,956.585l-143.026,156.491l-147.4,163.105l-706.28,-0l-145.23,-176.329l-116.611,-143.267l-0,-921.319l275.031,-279.922l704.076,-0l158.421,138.859l121.019,105.797Zm-828.746,846.379l0,-683.274l414.373,-0l0,588.497l335.025,0l0,-711.928l-90.368,-81.552c-20.572,-17.633 -42.613,-37.102 -66.124,-58.409c-23.51,-21.306 -47.021,-41.511 -70.531,-60.613l-645.805,0l-227.023,233.636l-0,855.195l96.981,119.022l121.226,145.471l636.988,0c19.102,-20.571 40.041,-42.98 62.817,-67.225c22.776,-24.245 43.715,-46.654 62.817,-67.225l119.022,-132.247l0,-79.348l-749.398,0Zm709.724,41.878l0,19.837c-39.674,42.613 -77.511,83.389 -113.512,122.328c-36,38.94 -72.368,78.981 -109.103,120.124l-599.518,0c-19.103,-23.51 -36.735,-44.817 -52.899,-63.919c-16.163,-19.102 -31.96,-37.837 -47.388,-56.205c-15.429,-18.367 -30.858,-37.102 -46.287,-56.205c-15.428,-19.102 -32.694,-39.674 -51.796,-61.715l-0,-824.337l204.982,-207.187l612.743,0l202.778,176.329l0,652.417l-253.473,0l0,-586.293l-495.925,-0l0,764.826l749.398,0Zm-374.699,-641.396l-255.677,-0l0,515.762l255.677,-0l0,-515.762Z" style="fill:#fff;fill-rule:nonzero;"/></g></g></svg>