<?xml version="1.0" encoding="UTF-8" standalone="no"?><!DOCTYPE svg PUBLIC "-//W3C//DTD SVG 1.1//EN" "http://www.w3.org/Graphics/SVG/1.1/DTD/svg11.dtd"><svg width="100%" height="100%" viewBox="0 0 10000 8892" version="1.1" xmlns="http://www.w3.org/2000/svg" xmlns:xlink="http://www.w3.org/1999/xlink" xml:space="preserve" xmlns:serif="http://www.serif.com/" style="fill-rule:evenodd;clip-rule:evenodd;stroke-linejoin:round;stroke-miterlimit:2;"><rect id="Artboard2" x="0" y="0" width="10000" height="8891.67" style="fill:none;"/><clipPath id="_clip1"><rect x="0" y="0" width="10000" height="8891.67"/></clipPath><g clip-path="url(#_clip1)"><path d="M8888.87,1021.73c612.85,0 1111.11,497.396 1111.11,1111.11l0,4444.46c0,612.846 -498.262,1111.11 -1111.11,1111.11l-7777.79,-0c-613.716,-0 -1111.11,-498.267 -1111.11,-1111.11l-0,-4444.46c-0,-613.713 497.396,-1111.11 1111.11,-1111.11l7777.79,0Zm-6666.67,5555.54c0,-612.846 -497.396,-1111.11 -1111.11,-1111.11l-0,1111.11l1111.11,0Zm-1111.11,-3333.33c613.712,-0 1111.11,-498.263 1111.11,-1111.11l-1111.11,0l-0,1111.11Zm7777.79,3333.33l-0,-1111.11c-612.846,-0 -1111.11,498.266 -1111.11,1111.11l1111.11,0Zm-0,-4444.46l-1111.11,-0c0,612.85 498.263,1111.11 1111.11,1111.11l-0,-1111.11Zm-3888.89,3888.89c920.138,0 1666.67,-746.529 1666.67,-1666.67c-0,-935.767 -746.529,-1666.67 -1666.67,-1666.67c-935.762,0 -1666.67,730.9 -1666.67,1666.67c0,920.137 730.905,1666.67 1666.67,1666.67Z" style="fill:#fff;fill-rule:nonzero;"/><g><path d="M4874.34,4618.47l-0,498.129l-1190.22,0l-0,-395.638c-0,-128.573 0.734,-258.248 2.204,-389.025c13.224,-13.225 28.653,-29.021 46.286,-47.389c17.633,-18.367 36.001,-36.735 55.103,-55.102c19.102,-18.368 37.47,-36.368 55.103,-54.001c17.633,-17.633 32.327,-33.062 44.082,-46.286l434.21,-0l-0,-88.165l-636.988,0l-0,-445.23l123.43,-0c45.552,-0 91.838,-0.368 138.859,-1.102c47.021,-0.735 91.838,-1.102 134.451,-1.102l544.415,-0l249.065,286.534l-0,517.966l-233.636,182.941l-416.577,2.204l-0,37.47l650.213,-2.204Zm-727.357,85.961l-0,-204.983l465.067,-2.204l182.942,-142.475l-0,-440.684l-204.983,-236.77l-398.944,-0c-61.715,-0 -130.042,0.367 -204.982,1.102c-74.94,0.735 -149.145,1.102 -222.615,1.102l-0,277.718l636.988,-0c-0,47.434 -0.368,91.161 -1.102,131.179c-0.735,40.018 -1.102,81.518 -1.102,124.498l-478.292,-0c-23.511,24.911 -48.491,49.822 -74.94,74.733c-26.45,24.911 -52.899,50.557 -79.348,76.937c-1.47,112.846 -2.204,223.855 -2.204,333.028l-0,335.231l506.945,0c77.879,0 162.737,-0.367 254.575,-1.102c91.838,-0.735 181.839,-1.102 270.004,-1.102l-0,-328.413l-648.009,2.205Zm606.131,39.674l-0,246.86l-247.963,0c-78.613,0 -155.757,0.367 -231.432,1.102c-75.674,0.735 -152.083,1.102 -229.227,1.102l-241.35,0c-0,-105.797 0.367,-208.288 1.102,-307.473c0.734,-99.185 1.102,-199.472 1.102,-300.862l130.042,-130.042l502.538,-0l2.204,-337.229l-636.988,-0l-0,-198.37l769.234,-0l180.738,209.39l-0,405.557l-152.084,123.43l-495.925,0l-0,288.739l648.009,-2.204Z" style="fill:#fff;fill-rule:nonzero;"/><path d="M6315.83,3838.21l0,956.584l-143.026,156.492l-147.4,163.104l-706.28,0l-145.23,-176.329l-116.611,-143.267l-0,-921.318l275.032,-279.922l704.075,-0l158.421,138.859l121.019,105.797Zm-828.745,846.379l-0,-683.275l414.372,0l0,588.498l335.025,-0l0,-711.928l-90.368,-81.552c-20.572,-17.633 -42.613,-37.103 -66.124,-58.409c-23.51,-21.307 -47.021,-41.511 -70.531,-60.613l-645.805,-0l-227.023,233.636l-0,855.195l96.981,119.022l121.226,145.471l636.988,0c19.102,-20.572 40.041,-42.98 62.817,-67.225c22.776,-24.246 43.715,-46.654 62.817,-67.226l119.022,-132.246l0,-79.348l-749.397,-0Zm709.723,41.878l0,19.837c-39.674,42.612 -77.511,83.389 -113.511,122.328c-36.001,38.939 -72.369,78.98 -109.104,120.124l-599.518,-0c-19.102,-23.511 -36.735,-44.817 -52.899,-63.919c-16.163,-19.103 -31.959,-37.838 -47.388,-56.205c-15.429,-18.368 -30.858,-37.103 -46.286,-56.205c-15.429,-19.102 -32.695,-39.674 -51.797,-61.715l-0,-824.338l204.982,-207.186l612.743,-0l202.778,176.329l0,652.417l-253.472,-0l-0,-586.294l-495.925,0l-0,764.827l749.397,-0Zm-374.699,-641.397l-255.676,0l-0,515.762l255.676,0l0,-515.762Z" style="fill:#fff;fill-rule:nonzero;"/></g></g></svg>