<?xml version="1.0" encoding="UTF-8" standalone="no"?><!DOCTYPE svg PUBLIC "-//W3C//DTD SVG 1.1//EN" "http://www.w3.org/Graphics/SVG/1.1/DTD/svg11.dtd"><svg width="100%" height="100%" viewBox="0 0 10000 8892" version="1.1" xmlns="http://www.w3.org/2000/svg" xmlns:xlink="http://www.w3.org/1999/xlink" xml:space="preserve" xmlns:serif="http://www.serif.com/" style="fill-rule:evenodd;clip-rule:evenodd;stroke-linejoin:round;stroke-miterlimit:2;"><rect id="Artboard2" x="0" y="0" width="10000" height="8891.67" style="fill:none;"/><clipPath id="_clip1"><rect x="0" y="0" width="10000" height="8891.67"/></clipPath><g clip-path="url(#_clip1)"><path d="M8888.93,1112.49c612.85,-0 1111.11,497.396 1111.11,1111.11l-0,4444.46c-0,612.846 -498.263,1111.11 -1111.11,1111.11l-7777.79,-0c-613.717,-0 -1111.11,-498.267 -1111.11,-1111.11l0,-4444.46c0,-613.712 497.396,-1111.11 1111.11,-1111.11l7777.79,-0Zm-6666.67,5555.54c-0,-612.845 -497.396,-1111.11 -1111.11,-1111.11l0,1111.11l1111.11,0Zm-1111.11,-3333.33c613.713,0 1111.11,-498.262 1111.11,-1111.11l-1111.11,-0l0,1111.11Zm7777.79,3333.33l0,-1111.11c-612.846,-0 -1111.11,498.267 -1111.11,1111.11l1111.11,0Zm0,-4444.46l-1111.11,0c-0,612.85 498.262,1111.11 1111.11,1111.11l0,-1111.11Zm-3888.89,3888.89c920.138,-0 1666.67,-746.529 1666.67,-1666.67c0,-935.767 -746.529,-1666.67 -1666.67,-1666.67c-935.762,0 -1666.67,730.9 -1666.67,1666.67c-0,920.138 730.904,1666.67 1666.67,1666.67Z" style="fill:#fff;fill-rule:nonzero;"/><path d="M4937.22,4172.52l0,48.49c94.042,-0 177.799,0.367 251.269,1.102c73.47,0.735 127.838,1.102 163.104,1.102l242.452,237.528l0,516.795l-249.064,228.711c-67.593,-0 -141.063,-0.368 -220.411,-1.102c-79.348,-0.735 -151.349,-1.102 -216.003,-1.102l-502.537,-0l-0,-478.293l654.621,0l-0,-59.511l-654.621,0l-0,-980.829l1188.02,-0l0,489.313l-656.825,-2.204Zm577.477,-81.553l0,-321.8l-1029.32,0l-0,813.317l654.621,0c-0,44.519 0.367,83.469 1.102,116.853c0.734,33.383 1.102,70.106 1.102,110.171l-656.825,-0l-0,310.779l826.541,0l202.778,-184.663l0,-439.617l-189.553,-191.241l-467.272,-2.204l0,-213.799l656.825,2.204Zm-696.499,-44.082l0,297.555l110.206,0c42.613,0 86.695,0.368 132.247,1.102c45.551,0.735 90.368,1.102 134.45,1.102l119.022,0c17.633,14.694 32.695,29.388 45.185,44.083c12.49,14.694 24.612,29.02 36.367,42.98c11.756,13.959 23.511,27.918 35.266,41.878c11.756,13.959 26.45,27.551 44.082,40.776l0,403.352l-176.328,160.9c-133.716,0 -263.024,-0.367 -387.924,-1.102c-124.9,-0.734 -253.473,-1.102 -385.719,-1.102l-0,-227.023l656.825,-0l-2.204,-310.78l-654.621,0l-0,-729.561l949.971,0l0,238.044l-656.825,-2.204Z" style="fill:#fff;fill-rule:nonzero;"/></g></svg>