<?xml version="1.0" encoding="UTF-8" standalone="no"?><!DOCTYPE svg PUBLIC "-//W3C//DTD SVG 1.1//EN" "http://www.w3.org/Graphics/SVG/1.1/DTD/svg11.dtd"><svg width="100%" height="100%" viewBox="0 0 10000 8892" version="1.1" xmlns="http://www.w3.org/2000/svg" xmlns:xlink="http://www.w3.org/1999/xlink" xml:space="preserve" xmlns:serif="http://www.serif.com/" style="fill-rule:evenodd;clip-rule:evenodd;stroke-linejoin:round;stroke-miterlimit:2;"><rect id="Artboard2" x="0" y="0" width="10000" height="8891.67" style="fill:none;"/><clipPath id="_clip1"><rect x="0" y="0" width="10000" height="8891.67"/></clipPath><g clip-path="url(#_clip1)"><path d="M8888.89,1112.49c612.85,-0 1111.11,497.396 1111.11,1111.11l0,4444.46c0,612.846 -498.262,1111.11 -1111.11,1111.11l-7777.79,-0c-613.717,-0 -1111.11,-498.267 -1111.11,-1111.11l0,-4444.46c0,-613.712 497.396,-1111.11 1111.11,-1111.11l7777.79,-0Zm-6666.67,5555.54c-0,-612.845 -497.396,-1111.11 -1111.11,-1111.11l-0,1111.11l1111.11,0Zm-1111.11,-3333.33c613.712,0 1111.11,-498.262 1111.11,-1111.11l-1111.11,-0l-0,1111.11Zm7777.79,3333.33l0,-1111.11c-612.846,-0 -1111.11,498.267 -1111.11,1111.11l1111.11,0Zm0,-4444.46l-1111.11,0c-0,612.85 498.262,1111.11 1111.11,1111.11l0,-1111.11Zm-3888.89,3888.89c920.137,-0 1666.67,-746.529 1666.67,-1666.67c0,-935.767 -746.529,-1666.67 -1666.67,-1666.67c-935.763,0 -1666.67,730.9 -1666.67,1666.67c0,920.138 730.904,1666.67 1666.67,1666.67Z" style="fill:#fff;fill-rule:nonzero;"/><g><path d="M4615.38,5204.05l-458.456,-0l0,-989.646l-200.574,-0l0,-528.987l659.03,-0l-0,1518.63Zm-63.92,-1434.88l-528.986,0l-0,361.474l198.37,0l-0,996.259l330.616,-0l0,-1357.73Zm-46.286,1315.86l-244.656,-0l-0,-996.259l-193.962,0l-0,-275.514l438.618,0l0,1271.77Z" style="fill:#fff;fill-rule:nonzero;"/><path d="M6043.65,3930.07l-0,956.585l-143.027,156.491l-147.399,163.105l-706.28,-0l-145.231,-176.329l-116.611,-143.267l0,-921.319l275.032,-279.922l704.076,-0l158.42,138.859l121.02,105.797Zm-828.746,846.379l-0,-683.274l414.373,-0l-0,588.497l335.025,0l-0,-711.928l-90.369,-81.552c-20.572,-17.633 -42.613,-37.102 -66.123,-58.409c-23.511,-21.306 -47.021,-41.511 -70.532,-60.613l-645.804,0l-227.024,233.636l0,855.195l96.981,119.022l121.226,145.471l636.988,0c19.103,-20.571 40.042,-42.98 62.817,-67.225c22.776,-24.245 43.715,-46.654 62.818,-67.225l119.022,-132.247l-0,-79.348l-749.398,0Zm709.724,41.878l-0,19.837c-39.674,42.613 -77.512,83.389 -113.512,122.328c-36.001,38.94 -72.368,78.981 -109.104,120.124l-599.518,0c-19.102,-23.51 -36.735,-44.817 -52.898,-63.919c-16.164,-19.102 -31.96,-37.837 -47.389,-56.205c-15.429,-18.367 -30.857,-37.102 -46.286,-56.205c-15.429,-19.102 -32.695,-39.674 -51.797,-61.715l0,-824.337l204.983,-207.187l612.742,0l202.779,176.329l-0,652.417l-253.473,0l-0,-586.293l-495.925,-0l-0,764.826l749.398,0Zm-374.699,-641.396l-255.677,-0l-0,515.762l255.677,-0l-0,-515.762Z" style="fill:#fff;fill-rule:nonzero;"/></g></g></svg>