<?xml version="1.0" encoding="UTF-8" standalone="no"?><!DOCTYPE svg PUBLIC "-//W3C//DTD SVG 1.1//EN" "http://www.w3.org/Graphics/SVG/1.1/DTD/svg11.dtd"><svg width="100%" height="100%" viewBox="0 0 2400 2134" version="1.1" xmlns="http://www.w3.org/2000/svg" xmlns:xlink="http://www.w3.org/1999/xlink" xml:space="preserve" xmlns:serif="http://www.serif.com/" style="fill-rule:evenodd;clip-rule:evenodd;stroke-linejoin:round;stroke-miterlimit:2;"><path d="M2133.33,266.667c147.084,-0 266.667,119.375 266.667,266.666l0,1066.67c0,147.083 -119.583,266.667 -266.667,266.667l-1866.67,-0c-147.292,-0 -266.667,-119.584 -266.667,-266.667l-0,-1066.67c-0,-147.291 119.375,-266.666 266.667,-266.666l1866.67,-0Zm-1600,1333.33c0,-147.083 -119.375,-266.667 -266.666,-266.667l-0,266.667l266.666,0Zm-266.666,-800c147.291,0 266.666,-119.583 266.666,-266.667l-266.666,0l-0,266.667Zm1866.67,800l0,-266.667c-147.083,0 -266.666,119.584 -266.666,266.667l266.666,0Zm0,-1066.67l-266.666,0c-0,147.084 119.583,266.667 266.666,266.667l0,-266.667Zm-933.333,933.334c220.833,-0 400,-179.167 400,-400c0,-224.584 -179.167,-400 -400,-400c-224.583,-0 -400,175.416 -400,400c0,220.833 175.417,400 400,400Z" style="fill:#fff;fill-rule:nonzero;"/></svg>