<?xml version="1.0" encoding="UTF-8" standalone="no"?><!DOCTYPE svg PUBLIC "-//W3C//DTD SVG 1.1//EN" "http://www.w3.org/Graphics/SVG/1.1/DTD/svg11.dtd"><svg width="100%" height="100%" viewBox="0 0 10000 8892" version="1.1" xmlns="http://www.w3.org/2000/svg" xmlns:xlink="http://www.w3.org/1999/xlink" xml:space="preserve" xmlns:serif="http://www.serif.com/" style="fill-rule:evenodd;clip-rule:evenodd;stroke-linejoin:round;stroke-miterlimit:2;"><rect id="Artboard1" x="0" y="0" width="9999.99" height="8891.67" style="fill:none;"/><clipPath id="_clip1"><rect x="0" y="0" width="9999.99" height="8891.67"/></clipPath><g clip-path="url(#_clip1)"><path d="M8888.88,1111.11c612.85,-0.001 1111.11,497.395 1111.11,1111.11l0,4444.46c0,612.846 -498.262,1111.11 -1111.11,1111.11l-7777.79,-0c-613.716,-0 -1111.11,-498.267 -1111.11,-1111.11l-0,-4444.46c-0,-613.713 497.396,-1111.11 1111.11,-1111.11l7777.79,-0Zm-6666.67,5555.54c0,-612.846 -497.395,-1111.11 -1111.11,-1111.11l0,1111.11l1111.11,0Zm-1111.11,-3333.33c613.713,-0 1111.11,-498.263 1111.11,-1111.11l-1111.11,0l0,1111.11Zm7777.79,3333.33l-0,-1111.11c-612.846,-0 -1111.11,498.266 -1111.11,1111.11l1111.11,0Zm-0,-4444.46l-1111.11,-0c0,612.85 498.263,1111.11 1111.11,1111.11l-0,-1111.11Zm-3888.89,3888.89c920.138,0 1666.67,-746.529 1666.67,-1666.67c-0,-935.767 -746.529,-1666.67 -1666.67,-1666.67c-935.762,0 -1666.67,730.9 -1666.67,1666.67c0,920.137 730.905,1666.67 1666.67,1666.67Z" style="fill:#fff;fill-rule:nonzero;"/><path d="M5329.52,5203.77l-458.456,0l0,-989.646l-200.574,0l0,-528.986l659.03,-0l-0,1518.63Zm-63.92,-1434.88l-528.986,0l-0,361.474l198.37,0l-0,996.258l330.616,0l0,-1357.73Zm-46.286,1315.85l-244.656,0l-0,-996.258l-193.962,0l-0,-275.514l438.618,0l0,1271.77Z" style="fill:#fff;fill-rule:nonzero;"/></g></svg>