<?xml version="1.0" encoding="UTF-8" standalone="no"?><!DOCTYPE svg PUBLIC "-//W3C//DTD SVG 1.1//EN" "http://www.w3.org/Graphics/SVG/1.1/DTD/svg11.dtd"><svg width="100%" height="100%" viewBox="0 0 10000 8892" version="1.1" xmlns="http://www.w3.org/2000/svg" xmlns:xlink="http://www.w3.org/1999/xlink" xml:space="preserve" xmlns:serif="http://www.serif.com/" style="fill-rule:evenodd;clip-rule:evenodd;stroke-linejoin:round;stroke-miterlimit:2;"><rect id="Artboard2" x="0" y="0" width="10000" height="8891.67" style="fill:none;"/><clipPath id="_clip1"><rect x="0" y="0" width="10000" height="8891.67"/></clipPath><g clip-path="url(#_clip1)"><path d="M8888.9,1203.25c612.85,0 1111.11,497.396 1111.11,1111.11l-0,4444.46c-0,612.846 -498.263,1111.11 -1111.11,1111.11l-7777.79,0c-613.716,0 -1111.11,-498.266 -1111.11,-1111.11l-0,-4444.46c-0,-613.712 497.396,-1111.11 1111.11,-1111.11l7777.79,0Zm-6666.67,5555.54c0,-612.846 -497.395,-1111.11 -1111.11,-1111.11l0,1111.11l1111.11,-0Zm-1111.11,-3333.33c613.713,0 1111.11,-498.262 1111.11,-1111.11l-1111.11,-0l0,1111.11Zm7777.79,3333.33l-0,-1111.11c-612.846,0 -1111.11,498.267 -1111.11,1111.11l1111.11,-0Zm-0,-4444.46l-1111.11,0c0,612.85 498.263,1111.11 1111.11,1111.11l-0,-1111.11Zm-3888.89,3888.89c920.138,0 1666.67,-746.529 1666.67,-1666.67c-0,-935.766 -746.529,-1666.67 -1666.67,-1666.67c-935.762,-0 -1666.67,730.9 -1666.67,1666.67c-0,920.138 730.904,1666.67 1666.67,1666.67Z" style="fill:#fff;fill-rule:nonzero;"/><g><path d="M4136.49,5137.91l-363.588,0l0,-784.86l-159.069,-0l-0,-419.525l522.657,0l0,1204.38Zm-50.692,-1137.96l-419.525,0l0,286.675l157.322,0l-0,790.104l262.203,0l-0,-1076.78Zm-36.709,1043.57l-194.03,0l0,-790.104l-153.825,-0l-0,-218.503l347.855,0l0,1008.61Z" style="fill:#fff;fill-rule:nonzero;"/><path d="M5269.2,4127.56l0,758.64l-113.43,124.11l-116.899,129.353l-560.13,0l-115.178,-139.841l-92.481,-113.622l-0,-730.671l218.12,-221.999l558.382,0l125.639,110.125l95.977,83.905Zm-657.255,671.24l0,-541.886l328.628,-0l-0,466.721l265.699,-0l-0,-564.61l-71.669,-64.677c-16.315,-13.984 -33.795,-29.425 -52.441,-46.322c-18.645,-16.898 -37.291,-32.922 -55.936,-48.071l-512.17,0l-180.046,185.29l0,678.231l76.913,94.393l96.141,115.369l505.177,0c15.15,-16.314 31.756,-34.086 49.819,-53.314c18.063,-19.228 34.669,-37 49.819,-53.315l94.393,-104.881l-0,-62.928l-594.327,-0Zm562.862,33.212l0,15.732c-31.464,33.795 -61.472,66.133 -90.023,97.015c-28.551,30.882 -57.393,62.637 -86.527,95.267l-475.461,0c-15.149,-18.645 -29.133,-35.543 -41.952,-50.692c-12.819,-15.15 -25.346,-30.008 -37.583,-44.575c-12.236,-14.567 -24.472,-29.425 -36.708,-44.574c-12.236,-15.15 -25.929,-31.465 -41.078,-48.945l-0,-653.759l162.565,-164.314l485.949,0l160.818,139.842l0,517.413l-201.022,0l0,-464.973l-393.304,0l-0,606.563l594.326,-0Zm-297.163,-508.674l-202.77,0l-0,409.037l202.77,-0l0,-409.037Z" style="fill:#fff;fill-rule:nonzero;"/><path d="M6386.19,4127.56l0,758.64l-113.43,124.11l-116.899,129.353l-560.13,0l-115.178,-139.841l-92.482,-113.622l0,-730.671l218.12,-221.999l558.383,0l125.639,110.125l95.977,83.905Zm-657.255,671.24l0,-541.886l328.628,-0l-0,466.721l265.698,-0l0,-564.61l-71.668,-64.677c-16.315,-13.984 -33.795,-29.425 -52.441,-46.322c-18.645,-16.898 -37.291,-32.922 -55.936,-48.071l-512.17,0l-180.046,185.29l0,678.231l76.913,94.393l96.141,115.369l505.177,0c15.15,-16.314 31.756,-34.086 49.819,-53.314c18.063,-19.228 34.669,-37 49.818,-53.315l94.393,-104.881l0,-62.928l-594.326,-0Zm562.862,33.212l0,15.732c-31.464,33.795 -61.472,66.133 -90.023,97.015c-28.551,30.882 -57.393,62.637 -86.527,95.267l-475.461,0c-15.149,-18.645 -29.133,-35.543 -41.952,-50.692c-12.819,-15.15 -25.347,-30.008 -37.583,-44.575c-12.236,-14.567 -24.472,-29.425 -36.708,-44.574c-12.236,-15.15 -25.929,-31.465 -41.079,-48.945l0,-653.759l162.566,-164.314l485.949,0l160.818,139.842l0,517.413l-201.022,0l-0,-464.973l-393.304,0l-0,606.563l594.326,-0Zm-297.163,-508.674l-202.77,0l-0,409.037l202.77,-0l-0,-409.037Z" style="fill:#fff;fill-rule:nonzero;"/></g></g></svg>